<svg width="21" height="15" viewBox="0 0 21 15" fill="none" xmlns="http://www.w3.org/2000/svg">
<path d="M17.9379 3.43466H15.8072C15.7788 3.21591 15.7205 3.01847 15.6325 2.84233C15.5444 2.6662 15.4279 2.51563 15.283 2.39063C15.1381 2.26563 14.9663 2.17046 14.7674 2.10512C14.5714 2.03693 14.354 2.00284 14.1154 2.00284C13.6921 2.00284 13.3271 2.10654 13.0202 2.31392C12.7163 2.52131 12.4819 2.82103 12.3171 3.21307C12.1552 3.60512 12.0742 4.07955 12.0742 4.63637C12.0742 5.21591 12.1566 5.70171 12.3214 6.09375C12.489 6.48296 12.7234 6.77699 13.0245 6.97585C13.3285 7.17188 13.6879 7.26989 14.1026 7.26989C14.3356 7.26989 14.5472 7.24006 14.7376 7.1804C14.9307 7.12074 15.0998 7.03409 15.2447 6.92046C15.3924 6.80398 15.5131 6.66335 15.6069 6.49858C15.7035 6.33097 15.7702 6.14205 15.8072 5.93182L17.9379 5.9446C17.9009 6.33097 17.7887 6.71165 17.6012 7.08665C17.4165 7.46165 17.1623 7.80398 16.8384 8.11364C16.5146 8.42046 16.1197 8.66478 15.6538 8.84659C15.1907 9.02841 14.6594 9.11932 14.06 9.11932C13.2702 9.11932 12.5629 8.94603 11.9379 8.59943C11.3157 8.25 10.8242 7.74148 10.4634 7.07387C10.1026 6.40625 9.92223 5.59375 9.92223 4.63637C9.92223 3.67614 10.1055 2.86222 10.4719 2.19461C10.8384 1.52699 11.3342 1.01989 11.9592 0.673298C12.5842 0.326707 13.2844 0.153412 14.06 0.153412C14.5884 0.153412 15.0771 0.227276 15.5259 0.375003C15.9748 0.519889 16.3697 0.732957 16.7106 1.01421C17.0515 1.29262 17.3285 1.63495 17.5415 2.0412C17.7546 2.44745 17.8867 2.91194 17.9379 3.43466Z" fill="black"/>
<path d="M1.22585 0.272728H3.58239L5.42756 3.92472H5.50426L7.34943 0.272728H9.70597L6.51421 6.08523V9H4.41761V6.08523L1.22585 0.272728Z" fill="#0077FF"/>
<path d="M4.09916 10.4844C3.15687 10.7908 2.00313 11.3516 1.5 11.7719C1.5 11.7719 0 12.4349 0 12.9674C0 13.5 0 13.7719 0.5 14C1 14.2281 1.5 13.7719 1.5 13.7719C2.00313 13.3516 3.15687 12.7908 4.09916 12.4844C4.54648 12.3389 4.96771 12.1329 5.50771 12.0388C7.2622 11.7328 8.93855 13.2996 11.2861 14.5872C12.0935 15.03 12.9181 15.037 13.7465 14.9674C15.7451 14.7996 16.5333 14.1964 17.5439 13.6799C18.1207 13.5386 18.4157 13.2125 19.0272 12.8829C19.2094 12.7894 19.3525 12.6502 19.5 12.5069C19.5 12.5069 20.2591 12.234 20.2516 11.6799C20.2482 11.4233 19.7566 11 19.5 11C19 11 18 11.4467 17.5439 11.6799C16.5333 12.1964 15.7451 12.7996 13.7465 12.9674C12.9181 13.037 12.0935 13.03 11.2861 12.5872C8.93855 11.2996 7.2622 9.73277 5.50771 10.0388C4.96771 10.1329 4.54648 10.3389 4.09916 10.4844Z" fill="black"/>
</svg>
